ffmpeg started on 2016-11-27 at 10:25:10
Report written to "Output/NVENCh264/results/ffmpeg/crowd_run_2160p50llhq8000k.log"
Command line:
Tools/ffmpeg/ffmpeg -benchmark -y -i Input/y4m/crowd_run_2160p50.y4m -c:v h264_nvenc -preset llhq -b:v 8000k -an Output/NVENCh264/encoded/crowd_run_2160p50llhq8000k.mkv
ffmpeg version N-82227-gdb23fde Copyright (c) 2000-2016 the FFmpeg developers
  built with gcc 5.4.0 (Ubuntu 5.4.0-6ubuntu1~16.04.2) 20160609
  configuration: --prefix=/home/jaroslav/ffmpeg_build --pkg-config-flags=--static --extra-cflags=-I/home/jaroslav/ffmpeg_build/include --extra-ldflags=-L/home/jaroslav/ffmpeg_build/lib --bindir=/home/jaroslav/bin --enable-gpl --enable-libass --enable-libfdk-aac --enable-libfreetype --enable-libmp3lame --enable-libopus --enable-libtheora --enable-libvorbis --enable-libvpx --enable-libx264 --enable-libx265 --enable-nvenc --enable-libmfx --enable-libxvid --enable-libgsm --enable-libopencore-amrnb --enable-version3 --enable-nonfree
  libavutil      55. 35.100 / 55. 35.100
  libavcodec     57. 66.101 / 57. 66.101
  libavformat    57. 57.100 / 57. 57.100
  libavdevice    57.  2.100 / 57.  2.100
  libavfilter     6. 66.100 /  6. 66.100
  libswscale      4.  3.100 /  4.  3.100
  libswresample   2.  4.100 /  2.  4.100
  libpostproc    54.  2.100 / 54.  2.100
Input #0, yuv4mpegpipe, from 'Input/y4m/crowd_run_2160p50.y4m':
  Duration: 00:00:10.00, start: 0.000000, bitrate: 4976642 kb/s
    Stream #0:0: Video: rawvideo (I420 / 0x30323449), yuv420p(progressive), 3840x2160, SAR 1:1 DAR 16:9, 50 fps, 50 tbr, 50 tbn, 50 tbc
[h264_nvenc @ 0x32c81c0] The variable bitrate rate-control requires the 'qmin' and/or 'qmax' option set.
Output #0, matroska, to 'Output/NVENCh264/encoded/crowd_run_2160p50llhq8000k.mkv':
  Metadata:
    encoder         : Lavf57.57.100
    Stream #0:0: Video: h264 (h264_nvenc) (Main) (H264 / 0x34363248), yuv420p, 3840x2160 [SAR 1:1 DAR 16:9], q=-1--1, 8000 kb/s, 50 fps, 1k tbn, 50 tbc
    Metadata:
      encoder         : Lavc57.66.101 h264_nvenc
    Side data:
      cpb: bitrate max/min/avg: 0/0/8000000 buffer size: 16000000 vbv_delay: -1
Stream mapping:
  Stream #0:0 -> #0:0 (rawvideo (native) -> h264 (h264_nvenc))
Press [q] to stop, [?] for help
frame=   10 fps=0.0 q=0.0 size=       0kB time=00:00:00.00 bitrate=N/A speed=   0x    frame=   18 fps= 17 q=0.0 size=       0kB time=00:00:00.00 bitrate=N/A speed=   0x    frame=   27 fps= 17 q=0.0 size=       0kB time=00:00:00.00 bitrate=N/A speed=   0x    frame=   41 fps= 20 q=46.0 size=       1kB time=00:00:00.20 bitrate=  29.7kbits/s speed=0.0967x    frame=   59 fps= 23 q=45.0 size=       1kB time=00:00:00.56 bitrate=  10.7kbits/s speed=0.216x    frame=   77 fps= 25 q=44.0 size=       1kB time=00:00:00.92 bitrate=   6.5kbits/s speed=0.295x    frame=   95 fps= 26 q=45.0 size=       1kB time=00:00:01.28 bitrate=   4.7kbits/s speed=0.352x    frame=  107 fps= 18 q=45.0 size=       1kB time=00:00:01.52 bitrate=   3.9kbits/s speed=0.259x    frame=  108 fps= 10 q=45.0 size=       1kB time=00:00:01.54 bitrate=   3.9kbits/s speed=0.15x    frame=  109 fps= 10 q=44.0 size=       1kB time=00:00:01.56 bitrate=   3.8kbits/s speed=0.144x    frame=  127 fps= 11 q=45.0 size=       1kB time=00:00:01.92 bitrate=   3.1kbits/s speed=0.169x    frame=  144 fps= 12 q=45.0 size=       1kB time=00:00:02.26 bitrate=   2.6kbits/s speed=0.191x    frame=  161 fps= 13 q=45.0 size=       1kB time=00:00:02.60 bitrate=   2.3kbits/s speed=0.21x    frame=  178 fps= 14 q=45.0 size=       1kB time=00:00:02.94 bitrate=   2.0kbits/s speed=0.228x    frame=  195 fps= 15 q=45.0 size=       1kB time=00:00:03.28 bitrate=   1.8kbits/s speed=0.245x    frame=  212 fps= 15 q=45.0 size=       1kB time=00:00:03.62 bitrate=   1.7kbits/s speed=0.261x    frame=  229 fps= 16 q=44.0 size=       1kB time=00:00:03.96 bitrate=   1.5kbits/s speed=0.275x    frame=  247 fps= 17 q=44.0 size=       1kB time=00:00:04.32 bitrate=   1.4kbits/s speed=0.289x    frame=  265 fps= 17 q=44.0 size=       1kB time=00:00:04.68 bitrate=   1.3kbits/s speed=0.303x    frame=  282 fps= 18 q=45.0 size=    4789kB time=00:00:05.02 bitrate=7813.2kbits/s speed=0.315x    frame=  296 fps= 18 q=45.0 size=    4789kB time=00:00:05.30 bitrate=7400.5kbits/s speed=0.317x    frame=  306 fps= 18 q=47.0 size=    4789kB time=00:00:05.50 bitrate=7131.4kbits/s speed=0.319x    frame=  315 fps= 18 q=45.0 size=    4789kB time=00:00:05.68 bitrate=6905.5kbits/s speed=0.32x    frame=  333 fps= 18 q=44.0 size=    4789kB time=00:00:06.04 bitrate=6493.9kbits/s speed=0.331x    frame=  351 fps= 19 q=46.0 size=    4789kB time=00:00:06.40 bitrate=6128.7kbits/s speed=0.341x    frame=  369 fps= 19 q=45.0 size=    4789kB time=00:00:06.76 bitrate=5802.4kbits/s speed=0.35x    frame=  387 fps= 20 q=45.0 size=    4789kB time=00:00:07.12 bitrate=5509.0kbits/s speed=0.359x    frame=  405 fps= 20 q=44.0 size=    4789kB time=00:00:07.48 bitrate=5243.9kbits/s speed=0.368x    frame=  423 fps= 20 q=45.0 size=    4789kB time=00:00:07.84 bitrate=5003.2kbits/s speed=0.376x    frame=  441 fps= 21 q=45.0 size=    4789kB time=00:00:08.20 bitrate=4783.6kbits/s speed=0.384x    frame=  459 fps= 21 q=45.0 size=    4789kB time=00:00:08.56 bitrate=4582.4kbits/s speed=0.391x    frame=  477 fps= 21 q=45.0 size=    4789kB time=00:00:08.92 bitrate=4397.5kbits/s speed=0.398x    frame=  495 fps= 22 q=45.0 size=    4789kB time=00:00:09.28 bitrate=4226.9kbits/s speed=0.405x    frame=  500 fps= 22 q=45.0 Lsize=    9684kB time=00:00:09.98 bitrate=7948.2kbits/s speed=0.432x    
video:9679kB audio:0kB subtitle:0kB other streams:0kB global headers:0kB muxing overhead: 0.047944%
bench: utime=1.108s
bench: maxrss=1410632kB
